<mxfile host="Electron" modified="2023-12-03T16:10:24.772Z" agent="Mozilla/5.0 (Windows NT 10.0; Win64; x64) AppleWebKit/537.36 (KHTML, like Gecko) draw.io/22.1.2 Chrome/114.0.5735.289 Electron/25.9.4 Safari/537.36" etag="rAo3OXS-cwbVCig34za-" version="22.1.2" type="device">
  <diagram name="Page-1" id="OOavxojU6nJLQOBg_-y1">
    <mxGraphModel dx="1246" dy="412" grid="1" gridSize="10" guides="1" tooltips="1" connect="1" arrows="1" fold="1" page="1" pageScale="1" pageWidth="1169" pageHeight="827" math="0" shadow="0">
      <root>
        <mxCell id="0" />
        <mxCell id="1" parent="0" />
        <mxCell id="NcCBNbxGuYgh0m4YEidb-3" value="Error&lt;br&gt;...&lt;br&gt;Hold RMB on This to show Message.&lt;br&gt;Hold Ctrl + RMB on This to show Details.&lt;br&gt;Click on This to Exit." style="rounded=0;whiteSpace=wrap;html=1;fontFamily=Inconsolata;align=left;verticalAlign=top;fillColor=#f5f5f5;fontColor=#333333;strokeColor=#666666;" parent="1" vertex="1">
          <mxGeometry x="430" y="414" width="270" height="80" as="geometry" />
        </mxCell>
      </root>
    </mxGraphModel>
  </diagram>
</mxfile>
